<svg width="214" height="40" viewBox="0 0 214 40" fill="none" xmlns="http://www.w3.org/2000/svg">
<g clip-path="url(#clip0_2_26)">
<path fill-rule="evenodd" clip-rule="evenodd" d="M20 0C31.0457 0 40 8.9543 40 20C40 31.0457 31.0457 40 20 40C8.9543 40 0 31.0457 0 20C0 8.9543 8.9543 0 20 0ZM13.238 14.3865C13.388 13.2699 13.7121 12.4856 13.8886 12.348C14.2465 12.0696 14.3094 11.5545 14.0313 11.197C13.7531 10.8391 13.238 10.7752 12.8801 11.0529C12.053 11.6965 11.7313 13.2808 11.6104 14.168C11.3105 16.4055 11.6128 18.8337 11.9199 20.4763C11.9949 20.8705 12.3383 21.1459 12.7252 21.1459C12.776 21.1459 12.8268 21.1411 12.8776 21.1314C13.3226 21.0484 13.6176 20.6199 13.533 20.1742C13.1244 17.9883 13.0228 15.9868 13.238 14.3865ZM8.47164 15.7184C8.39891 19.2732 9.23391 23.3193 10.5515 26.6277C11.2377 28.3508 13.0307 32.1895 15.1842 32.3022C15.8018 32.3345 16.1927 31.7178 16.4328 31.2327C16.8185 30.4535 17.078 29.5207 17.3278 28.6874C17.4621 28.2395 17.5973 27.792 17.7461 27.3486C18.0756 26.3667 18.7145 24.4257 19.9902 24.4257H19.9999H20.0096C21.2855 24.4257 21.9227 26.3667 22.2518 27.3487C22.4004 27.792 22.5354 28.2396 22.6697 28.6874C22.9198 29.5215 23.1809 30.4526 23.5671 31.2326C23.7884 31.6795 24.1738 32.3048 24.745 32.3048C24.7641 32.3048 24.7834 32.3044 24.8024 32.303L24.8107 32.3025L24.819 32.3021C26.9705 32.1979 28.7641 28.3462 29.4486 26.6277C30.7662 23.3195 31.6012 19.2733 31.5284 15.7185C31.4899 13.8372 31.1904 11.6873 30.1906 10.0539C29.2349 8.4925 27.7849 7.70328 25.958 7.69547C25.9495 7.69547 25.941 7.69547 25.9325 7.69547C25.055 7.69547 24.2399 7.88273 23.5125 8.38641C22.943 8.7807 22.529 9.29289 22.1059 9.83148C21.5577 10.5293 21.0046 11.2575 20.0267 11.2575C20.0211 11.2575 20.0154 11.2575 20.0098 11.2575C20.0034 11.2575 19.9969 11.2575 19.9904 11.2575C19.9848 11.2575 19.9791 11.2575 19.9735 11.2575C18.9955 11.2575 18.4423 10.5294 17.8941 9.83125C17.4694 9.29016 17.053 8.77633 16.4801 8.38164C15.7469 7.87641 14.9252 7.69141 14.0423 7.69531C12.2155 7.70352 10.7654 8.49219 9.80953 10.0538C8.80969 11.6873 8.51008 13.8371 8.47164 15.7184Z" fill="url(#paint0_linear_2_26)"/>
</g>
<path d="M55.7216 11.5455H59.5909L64.7727 24.1932H64.9773L70.1591 11.5455H74.0284V29H70.9943V17.0085H70.8324L66.0085 28.9489H63.7415L58.9176 16.983H58.7557V29H55.7216V11.5455ZM81.1023 29.2642C80.2727 29.2642 79.5256 29.1165 78.8608 28.821C78.2017 28.5199 77.679 28.0767 77.2926 27.4915C76.9119 26.9062 76.7216 26.1847 76.7216 25.3267C76.7216 24.5881 76.858 23.9773 77.1307 23.4943C77.4034 23.0114 77.7756 22.625 78.2472 22.3352C78.7188 22.0455 79.25 21.8267 79.8409 21.679C80.4375 21.5256 81.054 21.4148 81.6903 21.3466C82.4574 21.267 83.0795 21.196 83.5568 21.1335C84.0341 21.0653 84.3807 20.9631 84.5966 20.8267C84.8182 20.6847 84.929 20.4659 84.929 20.1705V20.1193C84.929 19.4773 84.7386 18.9801 84.358 18.6278C83.9773 18.2756 83.429 18.0994 82.7131 18.0994C81.9574 18.0994 81.358 18.2642 80.9148 18.5938C80.4773 18.9233 80.1818 19.3125 80.0284 19.7614L77.1477 19.3523C77.375 18.5568 77.75 17.892 78.2727 17.358C78.7955 16.8182 79.4347 16.4148 80.1903 16.1477C80.946 15.875 81.7813 15.7386 82.696 15.7386C83.3267 15.7386 83.9545 15.8125 84.5795 15.9602C85.2045 16.108 85.7756 16.3523 86.2926 16.6932C86.8097 17.0284 87.2244 17.4858 87.5369 18.0653C87.8551 18.6449 88.0142 19.3693 88.0142 20.2386V29H85.0483V27.2017H84.946C84.7585 27.5653 84.4943 27.9062 84.1534 28.2244C83.8182 28.5369 83.3949 28.7898 82.8835 28.983C82.3778 29.1705 81.7841 29.2642 81.1023 29.2642ZM81.9034 26.9972C82.5227 26.9972 83.0597 26.875 83.5142 26.6307C83.9688 26.3807 84.3182 26.0511 84.5625 25.642C84.8125 25.233 84.9375 24.7869 84.9375 24.304V22.7614C84.8409 22.8409 84.6761 22.9148 84.4432 22.983C84.2159 23.0511 83.9602 23.1108 83.6761 23.1619C83.392 23.2131 83.1108 23.2585 82.8324 23.2983C82.554 23.3381 82.3125 23.3722 82.108 23.4006C81.6477 23.4631 81.2358 23.5653 80.8722 23.7074C80.5085 23.8494 80.2216 24.0483 80.0114 24.304C79.8011 24.554 79.696 24.8778 79.696 25.2756C79.696 25.8438 79.9034 26.2727 80.3182 26.5625C80.733 26.8523 81.2614 26.9972 81.9034 26.9972ZM96.8267 29.2557C95.5199 29.2557 94.3977 28.9688 93.4602 28.3949C92.5284 27.821 91.8097 27.0284 91.304 26.017C90.804 25 90.554 23.8295 90.554 22.5057C90.554 21.1761 90.8097 20.0028 91.321 18.9858C91.8324 17.9631 92.554 17.1676 93.4858 16.5994C94.4233 16.0256 95.5313 15.7386 96.8097 15.7386C97.8722 15.7386 98.8125 15.9347 99.6307 16.3267C100.455 16.7131 101.111 17.2614 101.599 17.9716C102.088 18.6761 102.366 19.5 102.435 20.4432H99.4858C99.3665 19.8125 99.0824 19.2869 98.6335 18.8665C98.1903 18.4403 97.5966 18.2273 96.8523 18.2273C96.2216 18.2273 95.6676 18.3977 95.1903 18.7386C94.7131 19.0739 94.3409 19.5568 94.0739 20.1875C93.8125 20.8182 93.6818 21.5739 93.6818 22.4545C93.6818 23.3466 93.8125 24.1136 94.0739 24.7557C94.3352 25.392 94.7017 25.8835 95.1733 26.2301C95.6506 26.571 96.2102 26.7415 96.8523 26.7415C97.3068 26.7415 97.7131 26.6562 98.071 26.4858C98.4347 26.3097 98.7386 26.0568 98.983 25.7273C99.2273 25.3977 99.3949 24.9972 99.4858 24.5256H102.435C102.361 25.4517 102.088 26.2727 101.616 26.9886C101.145 27.6989 100.503 28.2557 99.6903 28.6591C98.8778 29.0568 97.9233 29.2557 96.8267 29.2557ZM104.018 18.4403V15.9091H115.472V18.4403H111.237V29H108.254V18.4403H104.018ZM123.185 29.2557C121.873 29.2557 120.739 28.983 119.785 28.4375C118.836 27.8864 118.106 27.108 117.594 26.1023C117.083 25.0909 116.827 23.9006 116.827 22.5312C116.827 21.1847 117.083 20.0028 117.594 18.9858C118.112 17.9631 118.833 17.1676 119.759 16.5994C120.685 16.0256 121.773 15.7386 123.023 15.7386C123.83 15.7386 124.592 15.8693 125.308 16.1307C126.029 16.3864 126.665 16.7841 127.217 17.3239C127.773 17.8636 128.211 18.5511 128.529 19.3864C128.847 20.2159 129.006 21.2045 129.006 22.3523V23.2983H118.276V21.2188H126.049C126.043 20.6278 125.915 20.1023 125.665 19.642C125.415 19.1761 125.066 18.8097 124.617 18.5426C124.174 18.2756 123.657 18.142 123.066 18.142C122.435 18.142 121.881 18.2955 121.404 18.6023C120.927 18.9034 120.555 19.3011 120.288 19.7955C120.026 20.2841 119.893 20.821 119.887 21.4062V23.2216C119.887 23.983 120.026 24.6364 120.305 25.1818C120.583 25.7216 120.972 26.1364 121.472 26.4261C121.972 26.7102 122.558 26.8523 123.228 26.8523C123.677 26.8523 124.083 26.7898 124.447 26.6648C124.81 26.5341 125.126 26.3438 125.393 26.0938C125.66 25.8438 125.862 25.5341 125.998 25.1648L128.879 25.4886C128.697 26.25 128.35 26.9148 127.839 27.483C127.333 28.0455 126.685 28.483 125.896 28.7955C125.106 29.1023 124.202 29.2557 123.185 29.2557ZM131.616 33.9091V15.9091H134.651V18.0739H134.83C134.989 17.7557 135.213 17.4176 135.503 17.0597C135.793 16.696 136.185 16.3864 136.679 16.1307C137.173 15.8693 137.804 15.7386 138.571 15.7386C139.582 15.7386 140.494 15.9972 141.307 16.5142C142.125 17.0256 142.773 17.7841 143.25 18.7898C143.733 19.7898 143.974 21.017 143.974 22.4716C143.974 23.9091 143.739 25.1307 143.267 26.1364C142.795 27.142 142.153 27.9091 141.341 28.4375C140.528 28.9659 139.608 29.2301 138.58 29.2301C137.83 29.2301 137.207 29.1051 136.713 28.8551C136.219 28.6051 135.821 28.304 135.52 27.9517C135.224 27.5937 134.994 27.2557 134.83 26.9375H134.702V33.9091H131.616ZM134.642 22.4545C134.642 23.3011 134.761 24.0426 135 24.679C135.244 25.3153 135.594 25.8125 136.048 26.1705C136.509 26.5227 137.065 26.6989 137.719 26.6989C138.401 26.6989 138.972 26.517 139.432 26.1534C139.892 25.7841 140.239 25.2812 140.472 24.6449C140.71 24.0028 140.83 23.2727 140.83 22.4545C140.83 21.642 140.713 20.9205 140.48 20.2898C140.247 19.6591 139.901 19.1648 139.44 18.8068C138.98 18.4489 138.406 18.2699 137.719 18.2699C137.06 18.2699 136.5 18.4432 136.04 18.7898C135.58 19.1364 135.23 19.6222 134.991 20.2472C134.759 20.8722 134.642 21.608 134.642 22.4545Z" fill="#00BEA2"/>
<path d="M154.318 13.4886H157.847C159.21 13.4886 160.42 13.7812 161.477 14.3665C162.534 14.9517 163.364 15.7756 163.966 16.8381C164.568 17.8949 164.869 19.1335 164.869 20.554C164.869 21.9403 164.568 23.1534 163.966 24.1932C163.364 25.233 162.534 26.0426 161.477 26.6222C160.42 27.196 159.21 27.483 157.847 27.483H154.318C152.949 27.483 151.733 27.1989 150.67 26.6307C149.614 26.0568 148.784 25.25 148.182 24.2102C147.58 23.1705 147.278 21.9545 147.278 20.5625C147.278 19.142 147.582 17.9034 148.19 16.8466C148.798 15.7841 149.631 14.9602 150.688 14.375C151.75 13.7841 152.96 13.4886 154.318 13.4886ZM154.318 16.1648C153.489 16.1648 152.77 16.3352 152.162 16.6761C151.56 17.0114 151.094 17.5057 150.764 18.1591C150.435 18.8125 150.27 19.6136 150.27 20.5625C150.27 21.4716 150.435 22.2415 150.764 22.8722C151.099 23.5028 151.571 23.983 152.179 24.3125C152.787 24.642 153.5 24.8068 154.318 24.8068H157.855C158.679 24.8068 159.389 24.642 159.986 24.3125C160.588 23.9773 161.051 23.4943 161.375 22.8636C161.705 22.2273 161.869 21.4574 161.869 20.554C161.869 19.6165 161.705 18.821 161.375 18.1676C161.051 17.5142 160.588 17.017 159.986 16.6761C159.389 16.3352 158.679 16.1648 157.855 16.1648H154.318ZM157.608 11.2386V29.7159H154.565V11.2386H157.608ZM171.509 29.2642C170.679 29.2642 169.932 29.1165 169.267 28.821C168.608 28.5199 168.085 28.0767 167.699 27.4915C167.318 26.9062 167.128 26.1847 167.128 25.3267C167.128 24.5881 167.264 23.9773 167.537 23.4943C167.81 23.0114 168.182 22.625 168.653 22.3352C169.125 22.0455 169.656 21.8267 170.247 21.679C170.844 21.5256 171.46 21.4148 172.097 21.3466C172.864 21.267 173.486 21.196 173.963 21.1335C174.44 21.0653 174.787 20.9631 175.003 20.8267C175.224 20.6847 175.335 20.4659 175.335 20.1705V20.1193C175.335 19.4773 175.145 18.9801 174.764 18.6278C174.384 18.2756 173.835 18.0994 173.119 18.0994C172.364 18.0994 171.764 18.2642 171.321 18.5938C170.884 18.9233 170.588 19.3125 170.435 19.7614L167.554 19.3523C167.781 18.5568 168.156 17.892 168.679 17.358C169.202 16.8182 169.841 16.4148 170.597 16.1477C171.352 15.875 172.188 15.7386 173.102 15.7386C173.733 15.7386 174.361 15.8125 174.986 15.9602C175.611 16.108 176.182 16.3523 176.699 16.6932C177.216 17.0284 177.631 17.4858 177.943 18.0653C178.261 18.6449 178.42 19.3693 178.42 20.2386V29H175.455V27.2017H175.352C175.165 27.5653 174.901 27.9062 174.56 28.2244C174.224 28.5369 173.801 28.7898 173.29 28.983C172.784 29.1705 172.19 29.2642 171.509 29.2642ZM172.31 26.9972C172.929 26.9972 173.466 26.875 173.92 26.6307C174.375 26.3807 174.724 26.0511 174.969 25.642C175.219 25.233 175.344 24.7869 175.344 24.304V22.7614C175.247 22.8409 175.082 22.9148 174.849 22.983C174.622 23.0511 174.366 23.1108 174.082 23.1619C173.798 23.2131 173.517 23.2585 173.239 23.2983C172.96 23.3381 172.719 23.3722 172.514 23.4006C172.054 23.4631 171.642 23.5653 171.278 23.7074C170.915 23.8494 170.628 24.0483 170.418 24.304C170.207 24.554 170.102 24.8778 170.102 25.2756C170.102 25.8438 170.31 26.2727 170.724 26.5625C171.139 26.8523 171.668 26.9972 172.31 26.9972ZM181.523 33.9091V15.9091H184.557V18.0739H184.736C184.895 17.7557 185.119 17.4176 185.409 17.0597C185.699 16.696 186.091 16.3864 186.585 16.1307C187.08 15.8693 187.71 15.7386 188.477 15.7386C189.489 15.7386 190.401 15.9972 191.213 16.5142C192.031 17.0256 192.679 17.7841 193.156 18.7898C193.639 19.7898 193.881 21.017 193.881 22.4716C193.881 23.9091 193.645 25.1307 193.173 26.1364C192.702 27.142 192.06 27.9091 191.247 28.4375C190.435 28.9659 189.514 29.2301 188.486 29.2301C187.736 29.2301 187.114 29.1051 186.619 28.8551C186.125 28.6051 185.727 28.304 185.426 27.9517C185.131 27.5937 184.901 27.2557 184.736 26.9375H184.608V33.9091H181.523ZM184.548 22.4545C184.548 23.3011 184.668 24.0426 184.906 24.679C185.151 25.3153 185.5 25.8125 185.955 26.1705C186.415 26.5227 186.972 26.6989 187.625 26.6989C188.307 26.6989 188.878 26.517 189.338 26.1534C189.798 25.7841 190.145 25.2812 190.378 24.6449C190.616 24.0028 190.736 23.2727 190.736 22.4545C190.736 21.642 190.619 20.9205 190.386 20.2898C190.153 19.6591 189.807 19.1648 189.347 18.8068C188.886 18.4489 188.312 18.2699 187.625 18.2699C186.966 18.2699 186.406 18.4432 185.946 18.7898C185.486 19.1364 185.136 19.6222 184.898 20.2472C184.665 20.8722 184.548 21.608 184.548 22.4545ZM204.057 25.4119L207.943 15.9091H210.432L205.139 29H202.983L197.81 15.9091H200.273L204.057 25.4119ZM199.497 15.9091V29H196.523V15.9091H199.497ZM208.744 29V15.9091H211.693V29H208.744Z" fill="#44BCC9"/>
<defs>
<linearGradient id="paint0_linear_2_26" x1="20" y1="40" x2="20" y2="0" gradientUnits="userSpaceOnUse">
<stop stop-color="#009EFB"/>
<stop offset="1" stop-color="#68C185"/>
</linearGradient>
<clipPath id="clip0_2_26">
<rect width="40" height="40" fill="white"/>
</clipPath>
</defs>
</svg>
