<svg id="Layer_1" enable-background="new 0 0 512 512" viewBox="0 0 512 512" xmlns="http://www.w3.org/2000/svg" xmlns:xlink="http://www.w3.org/1999/xlink"><linearGradient id="SVGID_1_" gradientUnits="userSpaceOnUse" x1="256" x2="256" y1="512" y2="0"><stop offset="0" stop-color="#009efb"></stop><stop offset="1" stop-color="#68c185"></stop></linearGradient><path clip-rule="evenodd" d="m256 0c141.385 0 256 114.615 256 256s-114.615 256-256 256-256-114.615-256-256 114.615-256 256-256zm-86.553 184.147c1.919-14.292 6.068-24.331 8.327-26.093 4.581-3.563 5.386-10.157 1.826-14.732-3.56-4.582-10.154-5.399-14.735-1.845-10.587 8.238-14.704 28.517-16.252 39.874-3.838 28.64.031 59.72 3.962 80.745.96 5.046 5.355 8.572 10.308 8.572.65 0 1.3-.062 1.95-.186 5.696-1.062 9.472-6.547 8.389-12.252-5.23-27.98-6.53-53.599-3.775-74.083zm-61.01 17.049c-.931 45.501 9.757 97.291 26.622 139.638 8.784 22.056 31.734 71.192 59.299 72.634 7.905.414 12.908-7.48 15.982-13.69 4.937-9.973 8.258-21.913 11.456-32.579 1.719-5.733 3.45-11.462 5.354-17.137 4.218-12.568 12.396-37.413 28.725-37.413h.124.124c16.331 0 24.488 24.845 28.7 37.414 1.902 5.675 3.63 11.404 5.349 17.136 3.201 10.676 6.543 22.594 11.487 32.578 2.833 5.721 7.766 13.724 15.077 13.724.245 0 .491-.005.735-.022l.106-.007.106-.005c27.54-1.334 50.498-50.636 59.259-72.632 16.865-42.346 27.553-94.137 26.622-139.638-.493-24.081-4.327-51.599-17.124-72.507-12.233-19.986-30.793-30.088-54.178-30.188-.109 0-.217 0-.326 0-11.232 0-21.665 2.397-30.976 8.844-7.289 5.047-12.589 11.603-18.005 18.497-7.016 8.932-14.096 18.253-26.613 18.253-.072 0-.145 0-.217 0-.082 0-.165 0-.248 0-.072 0-.144 0-.216 0-12.519 0-19.6-9.32-26.616-18.256-5.437-6.926-10.767-13.503-18.1-18.555-9.385-6.467-19.902-8.835-31.203-8.785-23.384.105-41.945 10.2-54.18 30.188-12.798 20.909-16.633 48.427-17.125 72.508z" fill="url(#SVGID_1_)" fill-rule="evenodd"></path></svg>